<?xml version="1.0" encoding="UTF-8" standalone="no"?><!DOCTYPE svg PUBLIC "-//W3C//DTD SVG 1.1//EN" "http://www.w3.org/Graphics/SVG/1.1/DTD/svg11.dtd"><svg width="100%" height="100%" viewBox="0 0 4267 4267" version="1.1" xmlns="http://www.w3.org/2000/svg" xmlns:xlink="http://www.w3.org/1999/xlink" xml:space="preserve" xmlns:serif="http://www.serif.com/" style="fill-rule:evenodd;clip-rule:evenodd;stroke-linejoin:round;stroke-miterlimit:2;"><path d="M3616.81,861.459l-282.89,282.89c-162.945,-236.873 -369.644,-433.011 -620.096,-588.412l253.47,-282.89c259.505,132.77 476.01,328.907 649.516,588.412Zm-434.52,346.257l-298.732,278.364c-126.735,-223.294 -328.907,-419.432 -606.516,-588.411l255.732,-278.364c256.488,134.278 472.993,330.415 649.516,588.411Zm-224.049,574.833c-597.464,479.782 -1209.26,832.075 -1835.39,1056.88l0,441.309c0,116.174 21.877,191.611 65.631,226.312c34.701,28.667 110.138,43 226.312,43l1516.29,-0l-0,443.572l-1520.82,-0c-327.398,-0 -534.851,-39.228 -622.359,-117.683c-92.033,-79.963 -138.05,-270.82 -138.05,-572.57l-0,-2211.07l472.992,0l0,1274.14c583.886,-241.4 1109.68,-562.763 1577.4,-964.09l257.996,380.204Z" style="fill:#bf0000;fill-rule:nonzero;"/></svg>